# xmcd
#
# Track frame offsets:
#	150
#	13437
#	24237
#	35987
#	48862
#	62600
#	73387
#	87712
#	98075
#	112487
#
# Disc length: 1632 seconds
#
# Revision: 1
# Processed by: cddbd v1.4b41PL2 Copyright (c) Steve Scherf et al.
# Submitted via: audiograbber 1.80
#
DISCID=95065e0a
DTITLE=Lefty Frizzell - Pure Country
DYEAR=1900
DGENRE=
TTITLE0=If You've Got The Money I've Got The Time
TTITLE1=How Long Will It Take (To Stop Loving You)
TTITLE2=Cigarettes And Coffee Blues
TTITLE3=You Gotta Be Puttin' Me On
TTITLE4=Saginaw, Michigan
TTITLE5=She's Gone, Gone, Gone
TTITLE6=The Long Black Veil
TTITLE7=Give Me More, More, More
TTITLE8=An Article From Life
TTITLE9=Watermelon Time In Georgia
EXTD=2000 - Sony Music
EXTT0=
EXTT1=
EXTT2=
EXTT3=
EXTT4=
EXTT5=
EXTT6=
EXTT7=
EXTT8=
EXTT9=
PLAYORDER=
